<svg width="498" height="162" viewBox="0 0 498 162" fill="none" xmlns="http://www.w3.org/2000/svg">
<path d="M164.725 35.288V45.72H135.093V127H122.677V45.72H92.917V35.288H164.725ZM165.719 127V62.168H172.247C173.484 62.168 174.338 62.4027 174.807 62.872C175.276 63.3413 175.596 64.152 175.767 65.304L176.535 75.416C178.754 70.8933 181.484 67.3733 184.727 64.856C188.012 62.296 191.852 61.016 196.247 61.016C198.039 61.016 199.66 61.2293 201.111 61.656C202.562 62.04 203.906 62.5947 205.143 63.32L203.671 71.832C203.372 72.8987 202.711 73.432 201.687 73.432C201.09 73.432 200.172 73.24 198.935 72.856C197.698 72.4293 195.97 72.216 193.751 72.216C189.783 72.216 186.455 73.368 183.767 75.672C181.122 77.976 178.903 81.3253 177.111 85.72V127H165.719ZM230.016 62.168V127H218.624V62.168H230.016ZM232.576 41.816C232.576 42.9253 232.341 43.9707 231.872 44.952C231.445 45.8907 230.848 46.744 230.08 47.512C229.355 48.2373 228.501 48.8133 227.52 49.24C226.539 49.6667 225.493 49.88 224.384 49.88C223.275 49.88 222.229 49.6667 221.248 49.24C220.309 48.8133 219.456 48.2373 218.688 47.512C217.963 46.744 217.387 45.8907 216.96 44.952C216.533 43.9707 216.32 42.9253 216.32 41.816C216.32 40.7067 216.533 39.6613 216.96 38.68C217.387 37.656 217.963 36.7813 218.688 36.056C219.456 35.288 220.309 34.6907 221.248 34.264C222.229 33.8373 223.275 33.624 224.384 33.624C225.493 33.624 226.539 33.8373 227.52 34.264C228.501 34.6907 229.355 35.288 230.08 36.056C230.848 36.7813 231.445 37.656 231.872 38.68C232.341 39.6613 232.576 40.7067 232.576 41.816ZM241.902 62.168H251.246C252.142 62.168 252.889 62.4027 253.486 62.872C254.083 63.3413 254.51 63.896 254.766 64.536L271.214 106.264C271.811 107.8 272.281 109.336 272.622 110.872C272.963 112.408 273.283 113.923 273.582 115.416C273.923 113.923 274.286 112.408 274.67 110.872C275.054 109.336 275.545 107.8 276.142 106.264L292.782 64.536C293.038 63.8533 293.443 63.2987 293.998 62.872C294.595 62.4027 295.321 62.168 296.174 62.168H305.07L278.638 127H268.334L241.902 62.168ZM328.266 62.168V127H316.874V62.168H328.266ZM330.826 41.816C330.826 42.9253 330.591 43.9707 330.122 44.952C329.695 45.8907 329.098 46.744 328.33 47.512C327.605 48.2373 326.751 48.8133 325.77 49.24C324.789 49.6667 323.743 49.88 322.634 49.88C321.525 49.88 320.479 49.6667 319.498 49.24C318.559 48.8133 317.706 48.2373 316.938 47.512C316.213 46.744 315.637 45.8907 315.21 44.952C314.783 43.9707 314.57 42.9253 314.57 41.816C314.57 40.7067 314.783 39.6613 315.21 38.68C315.637 37.656 316.213 36.7813 316.938 36.056C317.706 35.288 318.559 34.6907 319.498 34.264C320.479 33.8373 321.525 33.624 322.634 33.624C323.743 33.624 324.789 33.8373 325.77 34.264C326.751 34.6907 327.605 35.288 328.33 36.056C329.098 36.7813 329.695 37.656 330.122 38.68C330.591 39.6613 330.826 40.7067 330.826 41.816ZM395.96 127H390.904C389.795 127 388.899 126.829 388.216 126.488C387.533 126.147 387.085 125.421 386.872 124.312L385.592 118.296C383.885 119.832 382.221 121.219 380.6 122.456C378.979 123.651 377.272 124.675 375.48 125.528C373.688 126.339 371.768 126.957 369.72 127.384C367.715 127.811 365.475 128.024 363 128.024C360.483 128.024 358.115 127.683 355.896 127C353.72 126.275 351.821 125.208 350.2 123.8C348.579 122.392 347.277 120.621 346.296 118.488C345.357 116.312 344.888 113.752 344.888 110.808C344.888 108.248 345.592 105.795 347 103.448C348.408 101.059 350.669 98.9467 353.784 97.112C356.941 95.2773 361.059 93.784 366.136 92.632C371.213 91.4373 377.421 90.7547 384.76 90.584V85.528C384.76 80.4933 383.672 76.696 381.496 74.136C379.363 71.5333 376.184 70.232 371.96 70.232C369.187 70.232 366.84 70.5947 364.92 71.32C363.043 72.0027 361.4 72.792 359.992 73.688C358.627 74.5413 357.432 75.3307 356.408 76.056C355.427 76.7387 354.445 77.08 353.464 77.08C352.696 77.08 352.013 76.888 351.416 76.504C350.861 76.0773 350.413 75.5653 350.072 74.968L348.024 71.32C351.608 67.864 355.469 65.2827 359.608 63.576C363.747 61.8693 368.333 61.016 373.368 61.016C376.995 61.016 380.216 61.6133 383.032 62.808C385.848 64.0027 388.216 65.6667 390.136 67.8C392.056 69.9333 393.507 72.5147 394.488 75.544C395.469 78.5733 395.96 81.9013 395.96 85.528V127ZM366.392 120.024C368.397 120.024 370.232 119.832 371.896 119.448C373.56 119.021 375.117 118.445 376.568 117.72C378.061 116.952 379.469 116.035 380.792 114.968C382.157 113.901 383.48 112.685 384.76 111.32V97.816C379.512 97.9867 375.053 98.4133 371.384 99.096C367.715 99.736 364.728 100.589 362.424 101.656C360.12 102.723 358.435 103.981 357.368 105.432C356.344 106.883 355.832 108.504 355.832 110.296C355.832 112.003 356.109 113.475 356.664 114.712C357.219 115.949 357.965 116.973 358.904 117.784C359.843 118.552 360.952 119.128 362.232 119.512C363.512 119.853 364.899 120.024 366.392 120.024Z" fill="white"/>
<path fill-rule="evenodd" clip-rule="evenodd" d="M80.0873 49.9231C33.9223 45.0062 4.76568 44.7142 3.73999 50.2142C1.71499 61.0727 110.105 90.395 245.836 115.707C381.567 141.02 493.241 152.737 495.266 141.879C496.313 136.261 467.806 125.701 421.249 113.311L420.697 116.268C422.181 116.664 423.646 117.057 425.093 117.448C446.963 123.365 464.443 128.806 476.291 133.42C482.238 135.735 486.63 137.79 489.426 139.532C490.502 140.202 491.248 140.769 491.734 141.22C491.118 141.466 490.218 141.726 488.972 141.963C485.736 142.58 480.899 142.914 474.518 142.93C461.803 142.963 443.537 141.738 421.004 139.374C375.968 134.648 314.199 125.405 246.386 112.758C178.573 100.112 117.625 86.4699 73.913 74.6447C52.0424 68.7281 34.5628 63.2866 22.7146 58.6733C16.7681 56.358 12.3762 54.3028 9.58014 52.5613C8.50362 51.8908 7.75807 51.324 7.27221 50.8729C7.88799 50.6273 8.78773 50.3674 10.0336 50.1299C13.2694 49.5133 18.1069 49.1793 24.4881 49.163C37.2028 49.1304 55.4688 50.3551 78.0019 52.7193C78.511 52.7728 79.0223 52.8267 79.5356 52.8813L80.0873 49.9231ZM492.574 140.776C492.574 140.777 492.568 140.783 492.553 140.795C492.565 140.782 492.573 140.776 492.574 140.776ZM6.64858 50.1565C6.64931 50.1566 6.6541 50.165 6.66078 50.1815C6.6512 50.1646 6.64786 50.1563 6.64858 50.1565ZM6.43226 51.3165C6.43154 51.3163 6.43762 51.3098 6.45265 51.2975C6.44049 51.3105 6.43297 51.3166 6.43226 51.3165ZM492.357 141.936C492.358 141.937 492.355 141.928 492.345 141.912C492.349 141.922 492.353 141.93 492.355 141.933C492.356 141.935 492.357 141.936 492.357 141.936Z" fill="#AAAAAA"/>
</svg>
